<svg xmlns="http://www.w3.org/2000/svg" viewBox="0 0 18 18" shape-rendering="crispEdges"><rect x="8" y="1" width="2" height="1" fill="#1c3a2c"/><rect x="6" y="2" width="1" height="1" fill="#1c3a2c"/><rect x="7" y="2" width="1" height="1" fill="#3f6b4a"/><rect x="8" y="2" width="2" height="1" fill="#76995f"/><rect x="10" y="2" width="1" height="1" fill="#1c3a2c"/><rect x="2" y="3" width="2" height="1" fill="#1c3a2c"/><rect x="4" y="3" width="1" height="1" fill="#3f6b4a"/><rect x="5" y="3" width="3" height="1" fill="#76995f"/><rect x="8" y="3" width="1" height="1" fill="#3f6b4a"/><rect x="9" y="3" width="2" height="1" fill="#1c3a2c"/><rect x="11" y="3" width="1" height="1" fill="#76995f"/><rect x="12" y="3" width="1" height="1" fill="#3f6b4a"/><rect x="13" y="3" width="2" height="1" fill="#1c3a2c"/><rect x="1" y="4" width="1" height="1" fill="#1c3a2c"/><rect x="2" y="4" width="1" height="1" fill="#3f6b4a"/><rect x="3" y="4" width="1" height="1" fill="#76995f"/><rect x="4" y="4" width="1" height="1" fill="#1c3a2c"/><rect x="5" y="4" width="1" height="1" fill="#3f6b4a"/><rect x="6" y="4" width="4" height="1" fill="#76995f"/><rect x="10" y="4" width="1" height="1" fill="#3f6b4a"/><rect x="11" y="4" width="1" height="1" fill="#1c3a2c"/><rect x="12" y="4" width="1" height="1" fill="#76995f"/><rect x="13" y="4" width="1" height="1" fill="#3f6b4a"/><rect x="14" y="4" width="2" height="1" fill="#1c3a2c"/><rect x="1" y="5" width="1" height="1" fill="#1c3a2c"/><rect x="2" y="5" width="4" height="1" fill="#76995f"/><rect x="6" y="5" width="2" height="1" fill="#3f6b4a"/><rect x="8" y="5" width="2" height="1" fill="#b6cf90"/><rect x="10" y="5" width="2" height="1" fill="#3f6b4a"/><rect x="12" y="5" width="4" height="1" fill="#76995f"/><rect x="16" y="5" width="1" height="1" fill="#1c3a2c"/><rect x="1" y="6" width="1" height="1" fill="#1c3a2c"/><rect x="2" y="6" width="14" height="1" fill="#76995f"/><rect x="16" y="6" width="1" height="1" fill="#1c3a2c"/><rect x="2" y="7" width="2" height="1" fill="#1c3a2c"/><rect x="4" y="7" width="2" height="1" fill="#76995f"/><rect x="6" y="7" width="1" height="1" fill="#b6cf90"/><rect x="7" y="7" width="6" height="1" fill="#76995f"/><rect x="13" y="7" width="2" height="1" fill="#76995f"/><rect x="15" y="7" width="1" height="1" fill="#1c3a2c"/><rect x="2" y="8" width="2" height="1" fill="#1c3a2c"/><rect x="4" y="8" width="10" height="1" fill="#76995f"/><rect x="14" y="8" width="2" height="1" fill="#1c3a2c"/><rect x="4" y="9" width="2" height="1" fill="#1c3a2c"/><rect x="6" y="9" width="1" height="1" fill="#3f6b4a"/><rect x="7" y="9" width="4" height="1" fill="#76995f"/><rect x="11" y="9" width="1" height="1" fill="#3f6b4a"/><rect x="12" y="9" width="2" height="1" fill="#1c3a2c"/><rect x="7" y="10" width="1" height="1" fill="#1c3a2c"/><rect x="8" y="10" width="2" height="1" fill="#3f6b4a"/><rect x="10" y="10" width="1" height="1" fill="#1c3a2c"/><rect x="8" y="11" width="2" height="1" fill="#7a5c3a"/><rect x="8" y="12" width="2" height="1" fill="#7a5c3a"/><rect x="6" y="13" width="2" height="1" fill="#dba87a"/><rect x="8" y="13" width="2" height="1" fill="#c8895b"/><rect x="10" y="13" width="2" height="1" fill="#dba87a"/><rect x="6" y="14" width="6" height="1" fill="#c8895b"/><rect x="6" y="15" width="1" height="1" fill="#ad6e44"/><rect x="7" y="15" width="4" height="1" fill="#c8895b"/><rect x="11" y="15" width="1" height="1" fill="#ad6e44"/><rect x="6" y="16" width="2" height="1" fill="#ad6e44"/><rect x="8" y="16" width="2" height="1" fill="#c8895b"/><rect x="10" y="16" width="2" height="1" fill="#ad6e44"/><rect x="7" y="17" width="3" height="1" fill="#5b4636"/></svg>
